<svg xmlns="http://www.w3.org/2000/svg" xmlns:xlink="http://www.w3.org/1999/xlink" width="135" zoomAndPan="magnify" viewBox="0 0 101.25 30.000001" height="40" preserveAspectRatio="xMidYMid meet" version="1.0"><defs><clipPath id="7d2dbe83eb"><path d="M 1.269531 0 L 99.253906 0 L 99.253906 29.03125 L 1.269531 29.03125 Z M 1.269531 0 " clip-rule="nonzero"/></clipPath></defs><g clip-path="url(#7d2dbe83eb)"><path fill="#000000" d="M -1.421875 -2.292969 L 101.625 -2.292969 L 101.625 31.09375 L -1.421875 31.09375 Z M -1.421875 -2.292969 " fill-opacity="1" fill-rule="nonzero"/></g><path fill="#ffffff" d="M 19.074219 14.742188 C 19.082031 14.015625 19.277344 13.300781 19.636719 12.667969 C 20 12.03125 20.515625 11.5 21.140625 11.121094 C 20.746094 10.558594 20.222656 10.09375 19.617188 9.765625 C 19.007812 9.441406 18.332031 9.257812 17.644531 9.234375 C 16.171875 9.078125 14.746094 10.109375 14 10.109375 C 13.253906 10.109375 12.082031 9.246094 10.835938 9.269531 C 10.035156 9.296875 9.25 9.53125 8.5625 9.949219 C 7.878906 10.367188 7.3125 10.953125 6.921875 11.652344 C 5.230469 14.578125 6.492188 18.871094 8.113281 21.238281 C 8.925781 22.398438 9.875 23.691406 11.117188 23.636719 C 12.335938 23.585938 12.792969 22.871094 14.253906 22.871094 C 15.71875 22.871094 16.128906 23.636719 17.398438 23.613281 C 18.703125 23.59375 19.527344 22.449219 20.308594 21.28125 C 20.894531 20.457031 21.34375 19.546875 21.640625 18.582031 C 20.882812 18.265625 20.234375 17.730469 19.78125 17.046875 C 19.324219 16.363281 19.082031 15.5625 19.082031 14.742188 Z M 16.671875 7.683594 C 17.382812 6.832031 17.730469 5.738281 17.644531 4.636719 C 16.558594 4.746094 15.550781 5.265625 14.832031 6.085938 C 14.480469 6.484375 14.210938 6.949219 14.039062 7.453125 C 13.867188 7.957031 13.796875 8.488281 13.832031 9.019531 C 14.378906 9.023438 14.914062 8.90625 15.40625 8.675781 C 15.898438 8.441406 16.332031 8.105469 16.671875 7.683594 Z M 34.429688 20.707031 L 30.285156 20.707031 L 29.289062 23.636719 L 27.535156 23.636719 L 31.460938 12.796875 L 33.28125 12.796875 L 37.207031 23.640625 L 35.421875 23.640625 L 34.421875 20.707031 Z M 30.714844 19.351562 L 34 19.351562 L 32.378906 14.59375 L 32.335938 14.59375 Z M 45.695312 19.683594 C 45.695312 22.136719 44.375 23.714844 42.386719 23.714844 C 41.882812 23.742188 41.378906 23.625 40.9375 23.382812 C 40.496094 23.140625 40.132812 22.777344 39.890625 22.335938 L 39.855469 22.335938 L 39.855469 26.246094 L 38.222656 26.246094 L 38.222656 15.730469 L 39.800781 15.730469 L 39.800781 17.046875 L 39.828125 17.046875 C 40.082031 16.609375 40.453125 16.25 40.894531 16.003906 C 41.339844 15.757812 41.84375 15.636719 42.351562 15.652344 C 44.367188 15.652344 45.6875 17.238281 45.6875 19.683594 Z M 44.023438 19.683594 C 44.023438 18.085938 43.191406 17.03125 41.929688 17.03125 C 40.667969 17.03125 39.84375 18.105469 39.84375 19.683594 C 39.84375 21.265625 40.683594 22.347656 41.929688 22.347656 C 43.171875 22.347656 44.023438 21.300781 44.023438 19.683594 Z M 54.421875 19.683594 C 54.421875 22.136719 53.097656 23.714844 51.113281 23.714844 C 50.609375 23.742188 50.105469 23.625 49.664062 23.382812 C 49.222656 23.140625 48.859375 22.777344 48.613281 22.335938 L 48.578125 22.335938 L 48.578125 26.246094 L 46.949219 26.246094 L 46.949219 15.730469 L 48.527344 15.730469 L 48.527344 17.046875 L 48.554688 17.046875 C 48.808594 16.609375 49.175781 16.25 49.621094 16.003906 C 50.066406 15.757812 50.566406 15.636719 51.078125 15.652344 C 53.089844 15.652344 54.414062 17.238281 54.414062 19.683594 Z M 52.75 19.683594 C 52.75 18.085938 51.917969 17.03125 50.65625 17.03125 C 49.394531 17.03125 48.570312 18.105469 48.570312 19.683594 C 48.570312 21.265625 49.410156 22.347656 50.65625 22.347656 C 51.898438 22.347656 52.75 21.300781 52.75 19.683594 Z M 60.195312 20.617188 C 60.320312 21.691406 61.363281 22.398438 62.796875 22.398438 C 64.234375 22.398438 65.15625 21.691406 65.15625 20.722656 C 65.15625 19.886719 64.558594 19.378906 63.148438 19.03125 L 61.738281 18.6875 C 59.742188 18.210938 58.8125 17.273438 58.8125 15.765625 C 58.8125 13.898438 60.449219 12.613281 62.773438 12.613281 C 65.09375 12.613281 66.644531 13.898438 66.695312 15.765625 L 65.050781 15.765625 C 64.953125 14.683594 64.050781 14.027344 62.746094 14.027344 C 61.441406 14.027344 60.539062 14.691406 60.539062 15.652344 C 60.539062 16.417969 61.109375 16.863281 62.507812 17.214844 L 63.710938 17.511719 C 65.941406 18.035156 66.871094 18.933594 66.871094 20.515625 C 66.871094 22.539062 65.25 23.8125 62.675781 23.8125 C 60.265625 23.8125 58.636719 22.574219 58.53125 20.609375 L 60.195312 20.609375 Z M 70.386719 13.863281 L 70.386719 15.730469 L 71.890625 15.730469 L 71.890625 17.011719 L 70.386719 17.011719 L 70.386719 21.367188 C 70.386719 22.050781 70.683594 22.363281 71.347656 22.363281 C 71.523438 22.363281 71.707031 22.347656 71.882812 22.328125 L 71.882812 23.601562 C 71.585938 23.65625 71.285156 23.683594 70.980469 23.683594 C 69.378906 23.683594 68.746094 23.078125 68.746094 21.550781 L 68.746094 17.019531 L 67.589844 17.019531 L 67.589844 15.738281 L 68.746094 15.738281 L 68.746094 13.871094 L 70.386719 13.871094 Z M 72.769531 19.683594 C 72.769531 17.195312 74.242188 15.632812 76.527344 15.632812 C 78.8125 15.632812 80.285156 17.195312 80.285156 19.683594 C 80.285156 22.171875 78.832031 23.734375 76.527344 23.734375 C 74.222656 23.734375 72.769531 22.179688 72.769531 19.683594 Z M 78.640625 19.683594 C 78.640625 17.980469 77.847656 16.96875 76.535156 16.96875 C 75.222656 16.96875 74.433594 17.980469 74.433594 19.683594 C 74.433594 21.386719 75.210938 22.398438 76.535156 22.398438 C 77.859375 22.398438 78.640625 21.402344 78.640625 19.683594 Z M 81.632812 15.738281 L 83.183594 15.738281 L 83.183594 17.082031 L 83.21875 17.082031 C 83.328125 16.664062 83.574219 16.292969 83.921875 16.03125 C 84.269531 15.773438 84.695312 15.636719 85.128906 15.652344 C 85.3125 15.652344 85.507812 15.667969 85.691406 15.710938 L 85.691406 17.230469 C 85.457031 17.160156 85.210938 17.128906 84.964844 17.136719 C 84.726562 17.125 84.488281 17.167969 84.269531 17.257812 C 84.050781 17.347656 83.855469 17.484375 83.691406 17.65625 C 83.53125 17.832031 83.410156 18.035156 83.335938 18.261719 C 83.261719 18.488281 83.238281 18.722656 83.265625 18.960938 L 83.265625 23.648438 L 81.632812 23.648438 Z M 93.199219 21.316406 C 92.980469 22.75 91.578125 23.734375 89.78125 23.734375 C 87.476562 23.734375 86.042969 22.199219 86.042969 19.71875 C 86.042969 17.238281 87.476562 15.632812 89.710938 15.632812 C 91.945312 15.632812 93.285156 17.136719 93.285156 19.535156 L 93.285156 20.09375 L 87.6875 20.09375 L 87.6875 20.191406 C 87.640625 20.734375 87.8125 21.273438 88.164062 21.695312 C 88.515625 22.113281 89.019531 22.375 89.5625 22.425781 C 89.652344 22.425781 89.738281 22.433594 89.816406 22.425781 C 90.203125 22.460938 90.585938 22.371094 90.917969 22.171875 C 91.246094 21.972656 91.503906 21.671875 91.648438 21.316406 Z M 87.699219 18.960938 L 91.667969 18.960938 C 91.679688 18.710938 91.644531 18.460938 91.5625 18.226562 C 91.480469 17.988281 91.351562 17.773438 91.1875 17.585938 C 91.019531 17.402344 90.816406 17.25 90.589844 17.144531 C 90.363281 17.035156 90.121094 16.972656 89.871094 16.960938 L 89.722656 16.960938 C 89.1875 16.957031 88.675781 17.164062 88.296875 17.539062 C 87.917969 17.914062 87.703125 18.421875 87.699219 18.953125 L 87.699219 18.96875 Z M 30.503906 4.644531 C 31.777344 4.558594 32.886719 5.507812 32.976562 6.773438 C 32.984375 6.921875 32.976562 7.078125 32.96875 7.226562 C 32.96875 8.894531 32.066406 9.847656 30.503906 9.847656 L 28.613281 9.847656 L 28.613281 4.644531 Z M 30.410156 9.113281 C 30.84375 9.136719 31.269531 8.988281 31.59375 8.703125 C 31.917969 8.414062 32.117188 8.011719 32.144531 7.578125 C 32.144531 7.464844 32.144531 7.351562 32.125 7.238281 C 32.1875 6.804688 32.070312 6.367188 31.804688 6.019531 C 31.542969 5.675781 31.148438 5.445312 30.714844 5.386719 C 30.613281 5.371094 30.503906 5.367188 30.398438 5.378906 L 29.421875 5.378906 L 29.421875 9.113281 Z M 33.886719 7.882812 C 33.84375 7.390625 33.992188 6.902344 34.308594 6.523438 C 34.625 6.140625 35.078125 5.898438 35.570312 5.847656 C 36.0625 5.804688 36.554688 5.957031 36.9375 6.269531 C 37.316406 6.582031 37.5625 7.035156 37.609375 7.523438 C 37.621094 7.648438 37.621094 7.761719 37.609375 7.882812 C 37.636719 8.125 37.609375 8.371094 37.539062 8.605469 C 37.46875 8.839844 37.347656 9.058594 37.195312 9.246094 C 37.035156 9.4375 36.84375 9.59375 36.628906 9.707031 C 36.410156 9.824219 36.171875 9.894531 35.929688 9.917969 C 35.652344 9.941406 35.375 9.910156 35.117188 9.816406 C 34.855469 9.722656 34.621094 9.574219 34.425781 9.378906 C 34.230469 9.183594 34.082031 8.949219 33.988281 8.691406 C 33.894531 8.433594 33.859375 8.15625 33.886719 7.882812 Z M 36.804688 7.882812 C 36.804688 7.027344 36.417969 6.53125 35.746094 6.53125 C 35.070312 6.53125 34.683594 7.027344 34.683594 7.882812 C 34.683594 8.738281 35.0625 9.234375 35.746094 9.234375 C 36.417969 9.234375 36.804688 8.738281 36.804688 7.882812 Z M 41.746094 9.847656 L 40.929688 6.949219 L 40.871094 6.949219 L 40.054688 9.847656 L 39.257812 9.847656 L 38.171875 5.917969 L 38.960938 5.917969 L 39.667969 8.921875 L 39.730469 8.921875 L 40.546875 5.917969 L 41.292969 5.917969 L 42.105469 8.921875 L 42.167969 8.921875 L 42.867188 5.917969 L 43.648438 5.917969 L 42.5625 9.847656 Z M 44.550781 5.917969 L 45.304688 5.917969 L 45.304688 6.546875 L 45.363281 6.546875 C 45.566406 6.085938 46.039062 5.804688 46.539062 5.847656 C 46.707031 5.835938 46.875 5.855469 47.035156 5.910156 C 47.195312 5.960938 47.34375 6.042969 47.472656 6.152344 C 47.601562 6.261719 47.703125 6.394531 47.78125 6.546875 C 47.855469 6.695312 47.902344 6.859375 47.914062 7.027344 C 47.914062 7.125 47.914062 7.21875 47.90625 7.304688 L 47.90625 9.847656 L 47.125 9.847656 L 47.125 7.5 C 47.125 6.871094 46.855469 6.554688 46.273438 6.554688 C 46.15625 6.550781 46.039062 6.566406 45.925781 6.605469 C 45.8125 6.648438 45.710938 6.707031 45.625 6.789062 C 45.535156 6.867188 45.464844 6.964844 45.414062 7.070312 C 45.363281 7.175781 45.335938 7.292969 45.328125 7.410156 L 45.328125 9.847656 L 44.550781 9.847656 Z M 49.140625 4.382812 L 49.917969 4.382812 L 49.917969 9.847656 L 49.140625 9.847656 Z M 50.996094 7.882812 C 50.953125 7.390625 51.105469 6.902344 51.417969 6.523438 C 51.734375 6.140625 52.1875 5.898438 52.679688 5.847656 C 53.171875 5.804688 53.664062 5.957031 54.046875 6.269531 C 54.429688 6.582031 54.671875 7.035156 54.71875 7.523438 C 54.730469 7.648438 54.730469 7.761719 54.71875 7.882812 C 54.746094 8.125 54.71875 8.371094 54.648438 8.605469 C 54.578125 8.839844 54.460938 9.058594 54.304688 9.246094 C 54.148438 9.4375 53.957031 9.59375 53.738281 9.707031 C 53.519531 9.820312 53.285156 9.894531 53.039062 9.917969 C 52.765625 9.945312 52.488281 9.910156 52.226562 9.816406 C 51.964844 9.726562 51.730469 9.578125 51.535156 9.382812 C 51.339844 9.1875 51.1875 8.953125 51.097656 8.691406 C 51.003906 8.433594 50.96875 8.15625 50.996094 7.882812 Z M 53.914062 7.882812 C 53.914062 7.027344 53.53125 6.53125 52.855469 6.53125 C 52.179688 6.53125 51.796875 7.027344 51.796875 7.882812 C 51.796875 8.738281 52.171875 9.234375 52.855469 9.234375 C 53.53125 9.234375 53.914062 8.738281 53.914062 7.882812 Z M 55.542969 8.738281 C 55.542969 8.03125 56.070312 7.621094 57.007812 7.570312 L 58.078125 7.507812 L 58.078125 7.167969 C 58.078125 6.75 57.804688 6.519531 57.269531 6.519531 C 56.832031 6.519531 56.535156 6.679688 56.445312 6.957031 L 55.691406 6.957031 C 55.773438 6.285156 56.410156 5.847656 57.304688 5.847656 C 58.296875 5.847656 58.855469 6.335938 58.855469 7.167969 L 58.855469 9.855469 L 58.101562 9.855469 L 58.101562 9.304688 L 58.042969 9.304688 C 57.914062 9.503906 57.742188 9.664062 57.53125 9.773438 C 57.324219 9.878906 57.09375 9.933594 56.859375 9.925781 C 56.703125 9.941406 56.546875 9.925781 56.394531 9.882812 C 56.246094 9.839844 56.105469 9.765625 55.984375 9.667969 C 55.863281 9.570312 55.761719 9.449219 55.6875 9.3125 C 55.613281 9.175781 55.570312 9.023438 55.554688 8.867188 L 55.554688 8.746094 L 55.546875 8.738281 Z M 58.078125 8.40625 L 58.078125 8.074219 L 57.113281 8.136719 C 56.570312 8.171875 56.324219 8.355469 56.324219 8.703125 C 56.324219 9.054688 56.628906 9.261719 57.050781 9.261719 C 57.296875 9.285156 57.539062 9.210938 57.730469 9.054688 C 57.921875 8.902344 58.042969 8.675781 58.066406 8.433594 L 58.066406 8.398438 L 58.074219 8.40625 Z M 59.882812 7.882812 C 59.882812 6.644531 60.519531 5.859375 61.519531 5.859375 C 61.765625 5.847656 62.011719 5.90625 62.226562 6.027344 C 62.4375 6.148438 62.613281 6.328125 62.730469 6.546875 L 62.789062 6.546875 L 62.789062 4.390625 L 63.570312 4.390625 L 63.570312 9.855469 L 62.824219 9.855469 L 62.824219 9.234375 L 62.765625 9.234375 C 62.640625 9.449219 62.460938 9.628906 62.242188 9.75 C 62.023438 9.871094 61.777344 9.933594 61.527344 9.925781 C 60.519531 9.925781 59.890625 9.140625 59.890625 7.890625 Z M 60.6875 7.882812 C 60.6875 8.71875 61.082031 9.21875 61.738281 9.21875 C 62.394531 9.21875 62.796875 8.710938 62.796875 7.882812 C 62.796875 7.054688 62.386719 6.546875 61.738281 6.546875 C 61.089844 6.546875 60.6875 7.054688 60.6875 7.882812 Z M 66.785156 7.882812 C 66.742188 7.390625 66.890625 6.902344 67.207031 6.523438 C 67.519531 6.140625 67.972656 5.898438 68.464844 5.847656 C 69.492188 5.742188 70.402344 6.503906 70.507812 7.523438 C 70.515625 7.648438 70.515625 7.761719 70.507812 7.882812 C 70.53125 8.125 70.507812 8.371094 70.4375 8.605469 C 70.363281 8.839844 70.246094 9.058594 70.089844 9.246094 C 69.933594 9.4375 69.742188 9.59375 69.523438 9.707031 C 69.308594 9.824219 69.070312 9.894531 68.824219 9.917969 C 68.550781 9.941406 68.273438 9.910156 68.015625 9.816406 C 67.753906 9.722656 67.519531 9.574219 67.324219 9.378906 C 67.128906 9.183594 66.980469 8.949219 66.886719 8.691406 C 66.792969 8.433594 66.757812 8.15625 66.785156 7.882812 Z M 69.703125 7.882812 C 69.703125 7.027344 69.316406 6.53125 68.640625 6.53125 C 67.96875 6.53125 67.582031 7.027344 67.582031 7.882812 C 67.582031 8.738281 67.957031 9.234375 68.640625 9.234375 C 69.316406 9.234375 69.703125 8.738281 69.703125 7.882812 Z M 71.550781 5.917969 L 72.304688 5.917969 L 72.304688 6.546875 L 72.367188 6.546875 C 72.566406 6.085938 73.039062 5.804688 73.539062 5.847656 C 73.707031 5.835938 73.875 5.855469 74.035156 5.910156 C 74.195312 5.960938 74.34375 6.042969 74.472656 6.152344 C 74.601562 6.261719 74.707031 6.394531 74.78125 6.546875 C 74.859375 6.695312 74.902344 6.859375 74.914062 7.027344 C 74.914062 7.125 74.914062 7.21875 74.90625 7.304688 L 74.90625 9.847656 L 74.125 9.847656 L 74.125 7.5 C 74.125 6.871094 73.855469 6.554688 73.277344 6.554688 C 73.160156 6.550781 73.039062 6.566406 72.929688 6.605469 C 72.816406 6.648438 72.714844 6.707031 72.625 6.789062 C 72.539062 6.867188 72.464844 6.964844 72.414062 7.070312 C 72.363281 7.175781 72.335938 7.292969 72.332031 7.410156 L 72.332031 9.847656 L 71.550781 9.847656 Z M 79.296875 4.941406 L 79.296875 5.933594 L 80.152344 5.933594 L 80.152344 6.589844 L 79.296875 6.589844 L 79.296875 8.617188 C 79.296875 9.023438 79.460938 9.207031 79.855469 9.207031 C 79.953125 9.207031 80.058594 9.207031 80.152344 9.191406 L 80.152344 9.835938 C 80.015625 9.859375 79.875 9.875 79.734375 9.878906 C 78.867188 9.878906 78.523438 9.574219 78.523438 8.816406 L 78.523438 6.597656 L 77.902344 6.597656 L 77.902344 5.945312 L 78.523438 5.945312 L 78.523438 4.949219 L 79.304688 4.949219 Z M 81.214844 4.382812 L 81.984375 4.382812 L 81.984375 6.546875 L 82.046875 6.546875 C 82.148438 6.320312 82.320312 6.132812 82.535156 6.007812 C 82.75 5.878906 82.996094 5.820312 83.246094 5.839844 C 83.417969 5.832031 83.585938 5.855469 83.75 5.910156 C 83.910156 5.96875 84.058594 6.054688 84.183594 6.167969 C 84.3125 6.28125 84.414062 6.417969 84.488281 6.574219 C 84.5625 6.726562 84.605469 6.890625 84.613281 7.0625 C 84.613281 7.140625 84.613281 7.230469 84.605469 7.304688 L 84.605469 9.847656 L 83.824219 9.847656 L 83.824219 7.5 C 83.824219 6.871094 83.535156 6.554688 82.984375 6.554688 C 82.863281 6.542969 82.742188 6.558594 82.625 6.59375 C 82.511719 6.628906 82.402344 6.691406 82.3125 6.769531 C 82.21875 6.847656 82.144531 6.941406 82.089844 7.050781 C 82.035156 7.15625 82.003906 7.273438 81.992188 7.394531 L 81.992188 9.847656 L 81.214844 9.847656 Z M 89.152344 8.789062 C 89.046875 9.148438 88.816406 9.460938 88.503906 9.667969 C 88.191406 9.875 87.816406 9.96875 87.441406 9.925781 C 86.96875 9.9375 86.507812 9.761719 86.160156 9.4375 C 85.816406 9.109375 85.617188 8.660156 85.601562 8.1875 C 85.601562 8.09375 85.601562 7.996094 85.621094 7.898438 C 85.585938 7.644531 85.605469 7.382812 85.683594 7.132812 C 85.757812 6.886719 85.886719 6.65625 86.058594 6.464844 C 86.230469 6.269531 86.441406 6.113281 86.679688 6.007812 C 86.917969 5.902344 87.175781 5.847656 87.433594 5.847656 C 88.53125 5.847656 89.195312 6.601562 89.195312 7.832031 L 89.195312 8.101562 L 86.410156 8.101562 L 86.410156 8.144531 C 86.355469 8.71875 86.785156 9.21875 87.363281 9.269531 L 87.460938 9.269531 C 87.835938 9.316406 88.214844 9.132812 88.398438 8.789062 Z M 86.410156 7.523438 L 88.398438 7.523438 C 88.40625 7.402344 88.394531 7.277344 88.351562 7.160156 C 88.316406 7.039062 88.253906 6.929688 88.171875 6.835938 C 88.089844 6.742188 87.992188 6.664062 87.878906 6.609375 C 87.769531 6.554688 87.644531 6.523438 87.523438 6.511719 L 87.425781 6.511719 C 86.863281 6.511719 86.410156 6.949219 86.402344 7.507812 L 86.402344 7.535156 Z M 86.410156 7.523438 " fill-opacity="1" fill-rule="nonzero"/></svg>